<?xml version="1.0" encoding="UTF-8" standalone="no"?>
<!-- Created with Inkscape (http://www.inkscape.org/) -->

<svg
   xmlns:dc="http://purl.org/dc/elements/1.1/"
   xmlns:cc="http://creativecommons.org/ns#"
   xmlns:rdf="http://www.w3.org/1999/02/22-rdf-syntax-ns#"
   xmlns:svg="http://www.w3.org/2000/svg"
   xmlns="http://www.w3.org/2000/svg"
   xmlns:sodipodi="http://sodipodi.sourceforge.net/DTD/sodipodi-0.dtd"
   xmlns:inkscape="http://www.inkscape.org/namespaces/inkscape"
   width="300"
   height="300"
   viewBox="0 0 79.374996 79.375002"
   version="1.1"
   id="svg8"
   inkscape:version="0.92.4 (5da689c313, 2019-01-14)"
   sodipodi:docname="ludzik.svg">
  <defs
     id="defs2" />
  <sodipodi:namedview
     id="base"
     pagecolor="#ffffff"
     bordercolor="#666666"
     borderopacity="1.0"
     inkscape:pageopacity="0.0"
     inkscape:pageshadow="2"
     inkscape:zoom="0.98994949"
     inkscape:cx="281.73251"
     inkscape:cy="221.33172"
     inkscape:document-units="mm"
     inkscape:current-layer="layer1"
     showgrid="false"
     inkscape:snap-global="true"
     inkscape:window-width="1920"
     inkscape:window-height="1018"
     inkscape:window-x="-8"
     inkscape:window-y="-8"
     inkscape:window-maximized="1"
     units="px" />
  <metadata
     id="metadata5">
    <rdf:RDF>
      <cc:Work
         rdf:about="">
        <dc:format>image/svg+xml</dc:format>
        <dc:type
           rdf:resource="http://purl.org/dc/dcmitype/StillImage" />
        <dc:title></dc:title>
      </cc:Work>
    </rdf:RDF>
  </metadata>
  <g
     inkscape:label="Layer 1"
     inkscape:groupmode="layer"
     id="layer1"
     transform="translate(0,-217.62498)">
    <g
       id="g1038"
       transform="matrix(0.85759348,0,0,0.85759348,-17.227723,59.144481)">
      <g
         transform="translate(-35.114445,166.44765)"
         id="g833">
        <rect
           style="opacity:1;fill:#ffb380;fill-opacity:1;stroke:none;stroke-width:6.61500025;stroke-linecap:round;stroke-linejoin:round;stroke-miterlimit:4;stroke-dasharray:none;stroke-opacity:1"
           id="rect817"
           width="56.129463"
           height="78.430054"
           x="73.327385"
           y="29.770832"
           ry="28.064732" />
        <path
           style="opacity:1;fill:#ff9955;fill-opacity:1;stroke:none;stroke-width:6.61500025;stroke-linecap:round;stroke-linejoin:round;stroke-miterlimit:4;stroke-dasharray:none;stroke-opacity:1"
           d="m 72.382366,62.369921 a 9.0714281,9.0714281 0 0 0 -9.071281,9.071281 9.0714281,9.0714281 0 0 0 9.071281,9.071282 9.0714281,9.0714281 0 0 0 0.945161,-0.05891 V 62.42108 a 9.0714281,9.0714281 0 0 0 -0.945161,-0.05116 z"
           id="path823"
           inkscape:connector-curvature="0" />
        <path
           inkscape:connector-curvature="0"
           id="path828"
           d="m 130.13819,61.568112 a 9.0714281,9.0714281 0 0 1 9.07128,9.071281 9.0714281,9.0714281 0 0 1 -9.07128,9.071282 9.0714281,9.0714281 0 0 1 -0.94516,-0.05891 V 61.619271 a 9.0714281,9.0714281 0 0 1 0.94516,-0.05116 z"
           style="opacity:1;fill:#ff9955;fill-opacity:1;stroke:none;stroke-width:6.61500025;stroke-linecap:round;stroke-linejoin:round;stroke-miterlimit:4;stroke-dasharray:none;stroke-opacity:1" />
      </g>
      <g
         transform="matrix(1,0,0,0.81667602,-13.003454,177.94316)"
         id="g853">
        <rect
           ry="3.4017856"
           y="53.583332"
           x="89.259354"
           height="15.308036"
           width="6.8035712"
           id="rect849"
           style="opacity:1;fill:#f9f9f9;fill-opacity:1;stroke:none;stroke-width:6.61500025;stroke-linecap:round;stroke-linejoin:round;stroke-miterlimit:4;stroke-dasharray:none;stroke-opacity:1" />
        <rect
           ry="1.5591518"
           y="59.063984"
           x="91.201233"
           height="6.5200891"
           width="3.1183035"
           id="rect851"
           style="opacity:1;fill:#5050ff;fill-opacity:1;stroke:none;stroke-width:6.61500025;stroke-linecap:round;stroke-linejoin:round;stroke-miterlimit:4;stroke-dasharray:none;stroke-opacity:1" />
      </g>
      <rect
         ry="2.8397388"
         y="225.44611"
         x="64.03698"
         height="15.501633"
         width="5.6794777"
         id="rect855"
         style="opacity:1;fill:#ff9955;fill-opacity:1;stroke:none;stroke-width:6.61500025;stroke-linecap:round;stroke-linejoin:round;stroke-miterlimit:4;stroke-dasharray:none;stroke-opacity:1" />
      <g
         id="g861"
         transform="matrix(1,0,0,0.81667602,-38.928598,177.94316)">
        <rect
           style="opacity:1;fill:#f9f9f9;fill-opacity:1;stroke:none;stroke-width:6.61500025;stroke-linecap:round;stroke-linejoin:round;stroke-miterlimit:4;stroke-dasharray:none;stroke-opacity:1"
           id="rect857"
           width="6.8035712"
           height="15.308036"
           x="89.259354"
           y="53.583332"
           ry="3.4017856" />
        <rect
           style="opacity:1;fill:#5050ff;fill-opacity:1;stroke:none;stroke-width:6.61500025;stroke-linecap:round;stroke-linejoin:round;stroke-miterlimit:4;stroke-dasharray:none;stroke-opacity:1"
           id="rect859"
           width="3.1183035"
           height="6.5200891"
           x="91.201233"
           y="59.063984"
           ry="1.5591518" />
      </g>
      <g
         transform="translate(30.830996,165.17452)"
         id="g896">
        <g
           id="g883"
           transform="translate(8.3138467,11.942609)">
          <path
             inkscape:connector-curvature="0"
             id="path865"
             d="m 11.322388,70.62278 c -0.01398,0.200294 -0.02414,0.400835 -0.03049,0.601515 -10e-7,4.658365 0.192417,11.524377 3.394141,14.422018 2.809343,2.542525 4.588195,1.948244 12.408177,1.948246 8.587321,2e-6 9.826183,0.571553 12.668728,-2.142675 3.019937,-2.883613 3.200407,-9.722354 3.200406,-14.227589 -0.0033,-0.200621 -0.01032,-0.401162 -0.02119,-0.601515 z"
             style="opacity:1;fill:#800000;fill-opacity:1;stroke:none;stroke-width:6.61500025;stroke-linecap:round;stroke-linejoin:round;stroke-miterlimit:4;stroke-dasharray:none;stroke-opacity:1"
             sodipodi:nodetypes="ccsssccc" />
          <path
             inkscape:connector-curvature="0"
             id="rect872"
             d="m 12.211917,70.61464 v 2.136304 c 0,1.573218 1.266917,2.83962 2.840136,2.83962 h 24.254333 c 1.57322,0 2.839619,-1.266402 2.839619,-2.83962 V 70.61464 Z"
             style="opacity:1;fill:#ffffff;fill-opacity:1;stroke:none;stroke-width:6.61500025;stroke-linecap:round;stroke-linejoin:round;stroke-miterlimit:4;stroke-dasharray:none;stroke-opacity:1" />
        </g>
        <path
           style="opacity:1;fill:#ff5858;fill-opacity:1;stroke:none;stroke-width:5.28991365;stroke-linecap:round;stroke-linejoin:round;stroke-miterlimit:4;stroke-dasharray:none;stroke-opacity:1"
           d="m 35.389783,93.113893 c -3.901896,0.005 -6.628874,2.687959 -7.558776,6.477431 H 43.10055 c -0.930049,-3.79007 -3.808254,-6.473191 -7.710767,-6.477431 z"
           id="path885"
           inkscape:connector-curvature="0"
           sodipodi:nodetypes="cccc" />
      </g>
      <path
         inkscape:connector-curvature="0"
         id="path898"
         d="m 44.38401,210.27761 6.481284,7.95127 9.822159,-10.55715 6.08037,13.02939 7.88445,-8.55262 11.55941,6.74855 3.60814,-6.1472 8.81989,0.33409 -4.61039,-11.1585 4.00904,-7.61719 -10.08943,1.1359 -5.74629,-5.61266 -4.40995,5.0113 -10.89123,-7.61718 -8.886707,7.2831 -17.90706,-0.53454 2.672696,5.87993 -11.759859,3.60814 3.207235,9.55488 z"
         style="fill:#000000;stroke:#000000;stroke-width:0.26458332px;stroke-linecap:butt;stroke-linejoin:miter;stroke-opacity:1" />
      <g
         id="g906"
         transform="translate(-35.114445,166.44765)">
        <rect
           ry="28.064732"
           y="29.770832"
           x="73.327385"
           height="78.430054"
           width="56.129463"
           id="rect900"
           style="opacity:1;fill:#ffb380;fill-opacity:1;stroke:none;stroke-width:6.61500025;stroke-linecap:round;stroke-linejoin:round;stroke-miterlimit:4;stroke-dasharray:none;stroke-opacity:1" />
        <path
           inkscape:connector-curvature="0"
           id="path902"
           d="m 72.382366,62.369921 a 9.0714281,9.0714281 0 0 0 -9.071281,9.071281 9.0714281,9.0714281 0 0 0 9.071281,9.071282 9.0714281,9.0714281 0 0 0 0.945161,-0.05891 V 62.42108 a 9.0714281,9.0714281 0 0 0 -0.945161,-0.05116 z"
           style="opacity:1;fill:#ff9955;fill-opacity:1;stroke:none;stroke-width:6.61500025;stroke-linecap:round;stroke-linejoin:round;stroke-miterlimit:4;stroke-dasharray:none;stroke-opacity:1" />
        <path
           style="opacity:1;fill:#ff9955;fill-opacity:1;stroke:none;stroke-width:6.61500025;stroke-linecap:round;stroke-linejoin:round;stroke-miterlimit:4;stroke-dasharray:none;stroke-opacity:1"
           d="m 130.13819,61.568112 a 9.0714281,9.0714281 0 0 1 9.07128,9.071281 9.0714281,9.0714281 0 0 1 -9.07128,9.071282 9.0714281,9.0714281 0 0 1 -0.94516,-0.05891 V 61.619271 a 9.0714281,9.0714281 0 0 1 0.94516,-0.05116 z"
           id="path904"
           inkscape:connector-curvature="0" />
      </g>
      <g
         id="g912"
         transform="matrix(1,0,0,0.81667602,-13.003454,177.94316)">
        <rect
           style="opacity:1;fill:#f9f9f9;fill-opacity:1;stroke:none;stroke-width:6.61500025;stroke-linecap:round;stroke-linejoin:round;stroke-miterlimit:4;stroke-dasharray:none;stroke-opacity:1"
           id="rect908"
           width="6.8035712"
           height="15.308036"
           x="89.259354"
           y="53.583332"
           ry="3.4017856" />
        <rect
           style="opacity:1;fill:#5050ff;fill-opacity:1;stroke:none;stroke-width:6.61500025;stroke-linecap:round;stroke-linejoin:round;stroke-miterlimit:4;stroke-dasharray:none;stroke-opacity:1"
           id="rect910"
           width="3.1183035"
           height="6.5200891"
           x="91.201233"
           y="59.063984"
           ry="1.5591518" />
      </g>
      <rect
         style="opacity:1;fill:#ff9955;fill-opacity:1;stroke:none;stroke-width:6.61500025;stroke-linecap:round;stroke-linejoin:round;stroke-miterlimit:4;stroke-dasharray:none;stroke-opacity:1"
         id="rect914"
         width="5.6794777"
         height="15.501633"
         x="63.306095"
         y="224.16165"
         ry="2.8397388" />
      <g
         transform="matrix(1,0,0,0.81667602,-38.928598,177.94316)"
         id="g920">
        <rect
           ry="3.4017856"
           y="53.583332"
           x="89.259354"
           height="15.308036"
           width="6.8035712"
           id="rect916"
           style="opacity:1;fill:#f9f9f9;fill-opacity:1;stroke:none;stroke-width:6.61500025;stroke-linecap:round;stroke-linejoin:round;stroke-miterlimit:4;stroke-dasharray:none;stroke-opacity:1" />
        <rect
           ry="1.5591518"
           y="59.063984"
           x="91.201233"
           height="6.5200891"
           width="3.1183035"
           id="rect918"
           style="opacity:1;fill:#5050ff;fill-opacity:1;stroke:none;stroke-width:6.61500025;stroke-linecap:round;stroke-linejoin:round;stroke-miterlimit:4;stroke-dasharray:none;stroke-opacity:1" />
      </g>
      <g
         id="g930"
         transform="translate(30.830996,165.17452)">
        <g
           transform="translate(8.3138467,11.942609)"
           id="g926">
          <path
             sodipodi:nodetypes="ccsssccc"
             style="opacity:1;fill:#800000;fill-opacity:1;stroke:none;stroke-width:6.61500025;stroke-linecap:round;stroke-linejoin:round;stroke-miterlimit:4;stroke-dasharray:none;stroke-opacity:1"
             d="m 11.322388,70.62278 c -0.01398,0.200294 -0.02414,0.400835 -0.03049,0.601515 -10e-7,4.658365 0.192417,11.524377 3.394141,14.422018 2.809343,2.542525 4.588195,1.948244 12.408177,1.948246 8.587321,2e-6 9.826183,0.571553 12.668728,-2.142675 3.019937,-2.883613 3.200407,-9.722354 3.200406,-14.227589 -0.0033,-0.200621 -0.01032,-0.401162 -0.02119,-0.601515 z"
             id="path922"
             inkscape:connector-curvature="0" />
          <path
             style="opacity:1;fill:#ffffff;fill-opacity:1;stroke:none;stroke-width:6.61500025;stroke-linecap:round;stroke-linejoin:round;stroke-miterlimit:4;stroke-dasharray:none;stroke-opacity:1"
             d="m 12.211917,70.61464 v 2.136304 c 0,1.573218 1.266917,2.83962 2.840136,2.83962 h 24.254333 c 1.57322,0 2.839619,-1.266402 2.839619,-2.83962 V 70.61464 Z"
             id="path924"
             inkscape:connector-curvature="0" />
        </g>
        <path
           sodipodi:nodetypes="cccc"
           inkscape:connector-curvature="0"
           id="path928"
           d="m 35.389783,93.113893 c -3.901896,0.005 -6.628874,2.687959 -7.558776,6.477431 H 43.10055 c -0.930049,-3.79007 -3.808254,-6.473191 -7.710767,-6.477431 z"
           style="opacity:1;fill:#ff5858;fill-opacity:1;stroke:none;stroke-width:5.28991365;stroke-linecap:round;stroke-linejoin:round;stroke-miterlimit:4;stroke-dasharray:none;stroke-opacity:1" />
      </g>
      <path
         style="fill:#000000;stroke:#000000;stroke-width:0.26458332px;stroke-linecap:butt;stroke-linejoin:miter;stroke-opacity:1"
         d="m 44.38401,210.27761 6.481284,7.95127 9.822159,-10.55715 6.08037,13.02939 7.88445,-8.55262 11.55941,6.74855 3.60814,-6.1472 8.81989,0.33409 -4.61039,-11.1585 4.00904,-7.61719 -10.08943,1.1359 -5.74629,-5.61266 -4.40995,5.0113 -10.89123,-7.61718 -8.886707,7.2831 -17.90706,-0.53454 2.672696,5.87993 -11.759859,3.60814 3.207235,9.55488 z"
         id="path932"
         inkscape:connector-curvature="0" />
    </g>
  </g>
</svg>
